<?xml version="1.0" encoding="UTF-8"?>
<svg xmlns="http://www.w3.org/2000/svg" xmlns:xlink="http://www.w3.org/1999/xlink" fill="none" viewBox="0 0 600 520">
  <defs>
    <path id="reuse-0" fill="#fff" d="M353.166 47.8766V270.442h-62.697V47.8766h62.697ZM355.043 46h-66.451v226.319h66.451V46Z"></path>
  </defs>
  <path fill="#4BB1E4" d="M332.401 383.357c-34.717 14.497-72.493 26.507-108.27 21.074-36.256-5.507-68.628-28.149-88.004-59.113-54.5808-87.262-13.483-218.136 74.126-268.0256 97.996-55.8196 221.89-24.105 304.348 44.5786 33.694 28.065 51.156 72.963 42.74 116.678-9.337 48.735-48.501 83.34-95.201 96.317-1.341.366-2.702.722-4.053 1.06-20.727 5.104-39.503 15.341-59.761 21.891-22.331 7.196-44.278 16.457-65.925 25.54Z" opacity=".05"></path>
  <path fill="#20BAFC" d="M355.033 46h-66.441v226.319h66.441V46Z"></path>
  <use xlink:href="#reuse-0"></use>
  <path fill="#fff" d="M288.592 173.027h47.666s-12.789-9.674-17.584-8.275c0 0-12.198-12.977-24.189-9.524-2.021.564-3.991 1.292-5.893 2.177v15.622ZM311.796 188.04v15.529h-23.204v68.749h66.451V188.04h-43.247Z"></path>
  <use xlink:href="#reuse-0"></use>
  <path fill="#20BAFC" d="M501.925 46H358.871v226.319h143.054V46Z"></path>
  <path fill="#fff" d="M500.039 47.8766V270.442H360.748V47.8766h139.291ZM501.915 46H358.871v226.319h143.044V46Z"></path>
  <path fill="#fff" d="M360.729 154.993h66.75s-12.789-9.664-17.593-8.276c0 0-12.198-12.967-24.189-9.523-11.992 3.443-13.23 8.604-13.23 8.604-3.531-2.054-7.524-3.183-11.607-3.284l-.131 12.479ZM378.087 103.903h89.786s-12.761-9.6743-17.593-8.3044c0 0-12.198-12.9767-24.189-9.5331-11.992 3.4435-13.202 8.6511-13.202 8.6511-5.666-3.2347-12.361-4.1589-18.691-2.5803-6.688 1.6944-12.462 5.9108-16.111 11.7667ZM501.915 141.313c-2.562 2.073-2.975 3.753-2.975 3.753-5.672-3.228-12.37-4.142-18.7-2.552-6.678 1.701-12.438 5.921-16.073 11.775h37.748v-12.976ZM489.764 203.569v-40.413h-20.84v30.458h-19.835v-16.496c-27.708 0-27.849 14.488-27.849 14.488v35.533h-13.878l-7.14-7.14h-21.187V185.46h-20.164v86.858h143.044v-68.749h-12.151ZM92.712 302.119l195.308 31.358-78.405 81.632-118.301-43.603 1.398-69.387Z"></path>
  <path fill="#fff" d="M494.455 221.031c.056-.046.092-.111.101-.183.008-.072-.011-.144-.054-.202-.022-.028-.049-.052-.08-.07-.032-.018-.066-.029-.102-.034-.036-.004-.072-.001-.107.008-.035.01-.067.027-.095.049l-2.562 1.98c.319-2.637.535-4.344.544-4.41.004-.036.001-.072-.009-.106-.01-.035-.027-.067-.05-.095-.023-.028-.051-.051-.082-.068-.032-.017-.067-.028-.103-.031-.035-.005-.071-.003-.105.006-.035.009-.067.025-.095.047-.028.022-.052.049-.069.08-.017.032-.028.066-.031.101 0 .066-.216 1.774-.535 4.401l-2.252-2.909c-.022-.028-.049-.052-.081-.07-.031-.018-.065-.029-.101-.034-.036-.004-.072-.001-.107.009-.035.009-.067.026-.095.048-.025.025-.045.054-.059.086-.013.033-.02.067-.02.102 0 .035.007.07.02.102.014.032.034.061.059.086l2.589 3.349c-.15 1.267-.319 2.703-.506 4.26l-2.29-2.89c-.052-.048-.121-.076-.192-.076-.072 0-.14.028-.193.076-.024.025-.044.054-.058.086-.013.032-.02.067-.02.102 0 .035.007.07.02.102.014.032.034.061.058.086l2.628 3.321c-.15 1.305-.31 2.674-.479 4.082l-2.308-2.881c-.052-.048-.121-.076-.192-.076-.072 0-.141.028-.193.076-.025.025-.045.054-.058.086-.014.032-.021.067-.021.102 0 .035.007.07.021.102.013.032.033.061.058.086l2.656 3.302c-.15 1.258-.291 2.534-.441 3.754l-2.346-2.815c-.046-.056-.113-.092-.185-.099-.072-.007-.144.015-.2.061-.056.046-.091.113-.098.185-.007.072.015.144.061.2l2.683 3.275c-.131 1.21-.272 2.42-.403 3.603l-2.44-2.815c-.024-.025-.054-.045-.086-.059-.032-.013-.067-.02-.101-.02-.035 0-.07.007-.102.02-.033.014-.062.034-.086.059-.051.051-.08.12-.08.192 0 .072.029.141.08.192l2.768 3.191c-.122 1.144-.244 2.242-.357 3.293l-2.12-2.608c-.025-.027-.055-.048-.088-.062-.033-.015-.069-.022-.105-.022-.036 0-.071.007-.105.022-.033.014-.062.035-.087.062-.048.05-.075.117-.075.187 0 .07.027.137.075.188l2.468 3.04c-.188 1.802-.347 3.425-.46 4.748-.003.036.002.072.013.106.012.034.03.065.053.092.024.027.052.049.085.065.032.016.067.025.102.028.069 0 .136-.026.186-.073.051-.047.082-.112.086-.181.113-1.313.273-2.946.46-4.757l2.674-2.177c.029-.022.053-.049.071-.08.017-.032.029-.066.033-.102.005-.036.002-.072-.008-.107s-.026-.067-.049-.095c-.052-.049-.121-.076-.192-.076-.072 0-.14.027-.192.076l-2.262 1.876c.113-1.041.225-2.139.357-3.274l2.815-2.477c.054-.048.088-.115.093-.187.006-.072-.018-.143-.065-.198-.024-.027-.052-.05-.084-.066-.032-.016-.067-.025-.103-.028-.072-.005-.143.018-.198.066l-2.411 2.092c.122-1.154.262-2.336.394-3.537l2.918-2.393c.051-.051.08-.12.08-.192 0-.073-.029-.142-.08-.193-.052-.049-.121-.076-.192-.076-.072 0-.141.027-.193.076l-2.636 1.783c.15-1.267.29-2.533.431-3.753l2.946-2.365c.029-.021.052-.047.07-.078.018-.031.029-.064.034-.099.004-.035.001-.071-.008-.105-.01-.034-.026-.066-.049-.093-.051-.051-.12-.08-.192-.08-.072 0-.141.029-.192.08l-2.515 2.017c.16-1.398.319-2.815.479-4.072l2.955-2.346c.028-.021.052-.047.07-.078.018-.03.029-.064.033-.099.005-.035.002-.071-.008-.105-.009-.034-.026-.065-.048-.093-.022-.029-.049-.052-.081-.07-.031-.018-.066-.03-.101-.034-.036-.004-.072-.001-.107.008-.035.01-.067.027-.096.049l-2.524 2.008c.179-1.557.357-2.993.507-4.26l3.021-2.383Z"></path>
  <path fill="#20BAFC" d="M453.865 277.198H297.44v18.259H507.189v-18.259h-53.324Z"></path>
  <path fill="#0D3BFB" d="M254.364 148.324c3.224-13.215-4.875-26.542-18.091-29.766-13.215-3.224-26.542 4.875-29.766 18.091-3.224 13.215 4.876 26.542 18.091 29.766 13.216 3.224 26.542-4.876 29.766-18.091Z"></path>
  <path fill="#fff" d="M233.544 161.871c10.698-1.719 17.977-11.786 16.258-22.484-1.72-10.699-11.786-17.978-22.485-16.259-10.698 1.72-17.977 11.786-16.258 22.485 1.719 10.698 11.786 17.977 22.485 16.258Z"></path>
  <path fill="#0D3BFB" d="m230.53 160.585.91-17.658 8.313-8.408-9.983 7.188-.357.788 1.117 18.09Z"></path>
  <path fill="#C1C7D7" d="M391.195 472.899h-6.511c0-.863.343-1.691.953-2.302.611-.61 1.439-.953 2.303-.953.863 0 1.691.343 2.302.953.61.611.953 1.439.953 2.302Z"></path>
  <path fill="#B8BDCC" d="m144.544 472.712 18.766-134.787h6.54l-18.766 134.787h-6.54Z"></path>
  <path fill="#C1C7D7" d="m142.667 472.712 18.766-134.787h6.54l-18.766 134.787h-6.54Z"></path>
  <path fill="#B8BDCC" d="m231.59 472.712-18.766-134.787h6.54l18.766 134.787h-6.54Z"></path>
  <path fill="#C1C7D7" d="M237.183 331.385h-92.639v6.54h92.639v-6.54Z"></path>
  <path fill="#C1C7D7" d="m229.714 472.712-18.766-134.787h6.539l18.767 134.787h-6.54Z"></path>
  <path stroke="#fff" stroke-miterlimit="10" stroke-width=".938302" d="M152.472 401.476h6.512M220.34 401.476h6.512M158.75 382.428l-2.684 19.048M223.033 401.476l-2.693-19.048M155.325 408.654c.71 0 1.285-.576 1.285-1.286 0-.71-.575-1.285-1.285-1.285s-1.285.575-1.285 1.285.575 1.286 1.285 1.286ZM223.596 407.368c.71 0 1.285-.575 1.285-1.285s-.575-1.286-1.285-1.286-1.286.576-1.286 1.286c0 .71.576 1.285 1.286 1.285Z"></path>
  <path stroke="#B8BDCC" stroke-miterlimit="10" stroke-width=".938302" d="m198.881 329.396-1.135 1.135H165.44c-6.934 0-8.126-6.249-7.244-9.627l17.565-52.057c.692-1.181 1.607-2.217 2.693-3.05"></path>
  <path fill="#C1C7D7" d="M194.49 310.47s-12.911-22.078-16.374-43.988c-3.687-23.242 0-47.637 0-47.637l14.206 79.53.938-.169 2.14 12.264h-.91Z"></path>
  <path stroke="#B8BDCC" stroke-miterlimit="10" stroke-width=".938302" d="m180.228 218.31 13.952 78.029"></path>
  <path fill="#B8BDCC" d="M243.028 329.442h-35.421v1.943h35.421v-1.943Z"></path>
  <path stroke="#B8BDCC" stroke-miterlimit="10" stroke-width=".938302" d="M135.743 331.385h111.095"></path>
  <path fill="#B8BDCC" d="M144.544 331.385v1.876h90.771v4.664h1.877v-6.54h-92.648Z"></path>
  <path fill="#C1C7D7" d="M228.4 455.044h-75.064l.919-6.54h73.216l.929 6.54Z"></path>
  <path fill="#fff" stroke="#188EF8" stroke-miterlimit="10" stroke-width=".938302" d="m279.809 296.724.122-29.857-3.152 6.155-3.66-4.569s.029 19.066 6.69 28.271Z"></path>
  <path fill="#188EF8" d="M362.07 331.319s-28.843 15.679-39.408 15.679c-4.692 0-10.05-.103-15.529-.244 0 0-5.386-8.098-11.917-19.526-9.518-.015-19.019-.828-28.402-2.43v-16.524c6.193-.328 10.762-1.013 12.198-2.496 1.67-1.745.882-47.553.882-47.553s1.192-10.321 8.979-12.855c6.522-2.111 14.591 3.416 18.335 6.512 29.81 24.659 54.862 79.437 54.862 79.437Z"></path>
  <path fill="#FFAE90" d="M298.416 462.043c1.708-.666 2.815-1.126 2.815-1.126 2.486.882.525 3.003 1.36 3.303.694.247 1.411.423 2.14.526l-2.993-6.916h-6.7l1.436 3.294.666-.272c.797.3 1.126.731 1.276 1.191Z"></path>
  <path fill="#0D3BFB" d="M297.102 460.852s-13.136 5.442-19.282 6.493c-.293.057-.565.196-.784.4-.218.204-.376.465-.454.754-.083.329-.133.665-.15 1.004l3.847.056c.077-.014.157-.014.234 0 .024-.339.077-.675.16-1.004.076-.29.233-.552.452-.756.219-.204.492-.342.786-.398 4.363-.751 12.255-3.753 16.458-5.367-.103-.451-.431-.882-1.267-1.182Z"></path>
  <path fill="#CED4D7" d="m276.432 469.503 4.081.065c.591.094-.882 3.153.085 3.2.966.047-2.374 0-4.091-.056-.957-.047-1.314-3.5-.075-3.209Z"></path>
  <path fill="#FFAE90" d="M262.92 253.168c2.045-1.192 3.641-2.299 3.641-2.299s-4.692-13.446 0-15.951c7.506-3.979 2.646 6.08 4.794 7.337 1.736 1.014 3.631.385 5.18-.75l5.226 3.002-10.321 18.644-8.52-9.983Z"></path>
  <path fill="#188EF8" d="M271.975 307.458c-5.208.816-4.448 1.492-5.208 2.017l-10.997 1.154c-.234-1.097 18.485-8.538 18.363-9.739-1.154-11.26-1.642-26.807-1.483-32.456h.939c-.197 6.831 2.298 17.255 6.662 27.896v11.128c-1.164 1.398-8.276 0-8.276 0Z"></path>
  <path fill="#0C0641" d="m299.636 453.092 2.064 4.766h-8.445s-36.124-61.674-46.446-83.115c-1.463-3.04-6.127-15.566 5.002-21.271-3.801 6.146-.76 14.159.375 16.505 10.321 21.45 46.427 83.087 46.427 83.087l1.023.028Z"></path>
  <path fill="#1D0344" d="m299.636 453.092 2.064 4.766h-8.445s-36.124-61.674-46.446-83.114c-.544-1.117-5.93-18.128 3.144-3.65 0 13.211 18.231 38.592 21.28 43.161 7.31 10.885 15.877 30.12 21.337 37.345 4.908 6.427 7.066 1.492 7.066 1.492Z" opacity=".7"></path>
  <path fill="#0C0641" d="M284.923 384.305c3.997 2.984 16.383 4.138 17.349 4.232 8.82.872 54.019 4.635 63.674-8.257 4.597-6.137 4.916-17.303 3.284-29.501 0 0-3.641-14.252-7.16-19.46 0 0-28.843 15.679-39.408 15.679-15.482 0-37.363-1.079-49.824-1.145-29.96-.178-22.519 20.136-20.643 24.124 10.322 21.45 46.427 83.087 46.427 83.087h11.448l-25.147-68.759Z"></path>
  <path fill="#FFAE90" d="m308.681 453.092 4.082 9.655c-1.577.722-4.298 2.552-8.07 2.027l-5.057-11.682h9.045Z"></path>
  <path fill="#188EF8" d="M280.589 266.145c-.057-5.124 0-7.976 0-7.976s.487-9.195 8.275-11.729v-1.07l-6.136-2.58-12.358 22.257 6.409 7.994 3.81-6.896Z"></path>
  <path fill="#1D0344" d="M266.561 250.869s-8.595 5.996-11.607 5.029c-2.383-.769-5.123-8.595-5.123-8.595s11.822-2.458 11.128-8.322c-.413-3.453.938-6.794-2.505-6.043-3.945.651-7.924 1.074-11.917 1.267 0 0-4.813-3.097-4.691-4.598.216-1.989 7.394-2.655 7.394-2.655s-2.365-5.199-.939-6.362c.394-.329 1.239-.169 2.13.141 1.022.381 2.01.846 2.956 1.388 0 0 11.25-7.168 18.897-2.664 5.208 3.049 8.332 13.136 7.404 18.024-.329 1.755-4.692 6.916-8.333 4.776-2.148-1.257 2.731-11.316-4.794-7.337-4.739 2.505 0 15.951 0 15.951Z"></path>
  <path fill="#C1C7D7" d="M361.01 294.688s27.83 67.633 11.898 89.617c-13.756 18.972-72.127 10.612-72.127 10.612s-4.579-.347-4.579-3.697c0-4.4 4.579-2.815 4.579-2.815s.844.094 2.355.235c10.574.995 53.483 4.175 62.81-8.342 13.915-18.578-11.363-83.218-11.363-83.218s-2.374-4.691 1.876-5.901c3.397-1.014 4.551 3.509 4.551 3.509Z"></path>
  <path fill="#C1C7D7" d="m387.939 469.653-38.602-74.361 9.552-2.195 29.05 76.556ZM323.872 470.16l-11.598-73.573 9.674.676 1.924 72.897Z"></path>
  <path stroke="#C1C7D7" stroke-miterlimit="10" stroke-width=".938302" d="m321.705 412.341 52.301 29.294M322.155 443.465l36.847-31.396"></path>
  <path fill="#C1C7D7" d="M326.893 472.899h-6.511c0-.863.343-1.691.953-2.302.611-.61 1.439-.953 2.303-.953.863 0 1.691.343 2.302.953.61.611.953 1.439.953 2.302Z"></path>
  <path fill="#FFAE90" d="M242.034 319.515c-2.384.514-4.855.446-7.207-.197 0 0-4.391 5.827-5.198 5.442-1.22-.581.826-4.691.263-4.888-.704-.244-4.025 5.254-5.283 4.56-1.445-.798 4.241-10.772 7.403-12.611 3.163-1.839 9.618.282 9.618.282l25.137-2.628v13.474s-19.197-4.916-24.733-3.434Z"></path>
  <path stroke="#000" stroke-miterlimit="10" stroke-width=".938302" d="M266.767 237.601c3.322-2.308 1.755 2.674 1.689 3.678"></path>
  <path fill="#fff" d="m273.148 326.534-6.381-1.727v-16.533l6.381-.994v19.254Z"></path>
  <path stroke="#000" stroke-miterlimit="10" stroke-width=".938302" d="M272.866 376.235c9.899 7.225 12.057 8.07 12.057 8.07"></path>
  <path fill="#FFAE90" d="m246.537 234.205-.535 11.897 3.829 1.201s11.822-2.458 11.128-8.322c-.413-3.453.938-6.794-2.505-6.043-3.945.651-7.924 1.074-11.917 1.267Z"></path>
  <path fill="#0D3BFB" stroke="#0D3BFB" stroke-miterlimit="10" stroke-width=".938302" d="M314.621 468.743s.703-6.221-.882-6.306c-1.408-.075-5.227 3.894-11.185 1.783-.835-.3 1.126-2.421-1.36-3.303 0 0-13.137 5.442-19.283 6.493-.294.056-.567.194-.786.398-.219.204-.376.467-.452.756-.083.33-.136.666-.16 1.004 16.721 1.708 34.108-.825 34.108-.825Z"></path>
  <path fill="#CED4D7" d="M314.292 472.899c-6.211.122-27.286.188-33.694-.131-.938-.047-1.323-3.49-.085-3.199 16.721 1.707 34.108-.826 34.108-.826 1.191.112 1.022 4.138-.329 4.156Z"></path>
  <path fill="#0C0042" d="M298.21 453.298c-.366-.61-36.247-61.928-46.446-83.115-.488-1.013-4.739-9.486-.479-16.392l.845-.797c-4.007 6.483 0 15.819.478 16.777 10.181 21.186 46.052 82.439 46.409 83.058l-.807.469Z" opacity=".6"></path>
  <path stroke="#0D3BFB" stroke-miterlimit="10" stroke-width=".938302" d="M302.554 464.22c-.835-.3 1.126-2.421-1.36-3.303 0 0-13.137 5.442-19.283 6.493-.294.056-.567.194-.786.398-.219.204-.376.467-.452.756-.083.33-.136.666-.16 1.004"></path>
  <path stroke="#C17963" stroke-miterlimit="10" stroke-width=".938302" d="m304.693 464.755-5.057-11.682"></path>
  <path fill="#fff" stroke="#0D3BFB" stroke-miterlimit="10" stroke-width=".938302" d="M304.243 464.68s-6.521 2.946-6.981 1.877c-.46-1.07 5.217-3.688 5.217-3.688-.085.647-.329 1.21.075 1.351.55.196 1.115.35 1.689.46Z"></path>
  <path fill="#EDF7FC" d="M56.9843 392.881c3.9878-2.064 8.6887-2.327 13.1362-1.595 2.3833.394 4.8698 1.107 6.4837 2.89 1.6139 1.783 1.9329 4.945.0657 6.474-1.1957.817-2.641 1.186-4.0817 1.042-3.4717 0-7.3281-.648-10.0961 1.435-1.5857 1.192-2.6366 3.172-4.532 3.754-.9468.217-1.9385.12-2.8255-.276-.8869-.396-1.6209-1.07-2.0912-1.92-.8996-1.736-1.101-3.75-.563-5.63.2258-1.306.7495-2.542 1.5306-3.613.7811-1.071 1.7986-1.947 2.9733-2.561ZM47.8264 375.213c2.4489 3.49 7.1967 2.336 9.383.206 2.1862-2.13 3.1339-5.217 3.9784-8.153 1.9329-6.728 3.8846-13.784 2.449-20.643-.3447-2.083-1.257-4.031-2.6367-5.63-.6937-.776-1.5781-1.357-2.5655-1.686-.9875-.329-2.0437-.395-3.0643-.191-2.3927.629-3.8846 2.975-4.9636 5.208-3.164 6.583-4.8212 13.789-4.851 21.093 0 3.397.3847 6.962 2.2988 9.768M41.1456 380.223c2.646-3.152 3.1527-7.74 1.9704-11.681-1.3412-3.918-3.7334-7.391-6.9153-10.04-3.6159-3.216-7.8224-5.699-12.3855-7.31-1.7678-.713-3.6697-1.033-5.5736-.938-.9526.049-1.8786.332-2.6966.823-.8181.491-1.503 1.175-1.9949 1.992-1.3042 2.533-.0563 5.508 1.323 7.976 2.3733 4.334 5.084 8.476 8.107 12.385 2.4395 3.144 5.2357 6.249 8.9514 7.666 3.7156 1.417 7.5721 1.257 9.5425-1.323"></path>
  <path fill="#C1C7D7" d="M47.7138 427.852c.1304-.519.2027-1.051.2158-1.586l.4223-4.325c.2057-2.129.5188-4.246.9383-6.343.5672-2.56 1.3391-5.07 2.3082-7.507.9446-2.428 2.2305-4.709 3.8189-6.774 1.2929-1.683 2.9434-3.058 4.8322-4.026 1.2835-.631 2.6574-1.058 4.0723-1.266.5319-.019 1.0603-.095 1.5763-.226-.5331-.061-1.0714-.061-1.6045 0-1.471.103-2.9111.472-4.2505 1.089-1.9905.941-3.7372 2.328-5.1044 4.053-1.654 2.097-2.9883 4.428-3.9596 6.916-.997 2.46-1.7757 5.003-2.327 7.6-.4115 2.12-.6935 4.263-.8445 6.418-.1407 1.876-.1876 3.331-.2158 4.354-.0193.543.0216 1.088.122 1.623Z"></path>
  <path fill="#C1C7D7" d="M47.9672 424.502c.0222-.243.0222-.488 0-.732v-2.102c0-1.876 0-4.466.0938-7.731.1689-6.521.7319-13.54 1.8109-23.458 1.0322-9.308 2.4115-20.136 3.8658-27.21.3097-1.605.6193-3.041.9383-4.307.3191-1.267.5255-2.355.7507-3.237.2252-.882.3659-1.502.4973-2.046.0679-.236.1119-.478.1313-.722-.1189.218-.2073.452-.2627.694-.1595.525-.3565 1.192-.6099 2.008-.2533.816-.5442 1.961-.8632 3.218-.319 1.258-.6756 2.693-1.0228 4.298-1.7957 8.345-3.1457 16.779-4.044 25.268-1.0885 9.918-1.5764 18.944-1.6233 25.484 0 3.275 0 5.921.1126 7.741.0563.854.0938 1.549.1314 2.102-.0023.247.0293.494.0938.732Z"></path>
  <path fill="#C1C7D7" d="M48.0047 407.087c.0572-.731.0572-1.465 0-2.195-.0844-1.417-.2815-3.453-.6756-5.959-.4838-2.923-1.1291-5.818-1.9329-8.67-.9521-3.508-2.1691-6.94-3.6406-10.265-2.5166-6.126-6.1251-11.743-10.6497-16.579-.7857-.828-1.6224-1.605-2.5053-2.327-.3847-.329-.7225-.648-1.0696-.939l-.9383-.666c-.592-.445-1.2197-.84-1.8766-1.182 2.1332 1.671 4.1577 3.476 6.0614 5.404 4.3736 4.887 7.8802 10.485 10.3682 16.552 1.4391 3.307 2.6584 6.704 3.65 10.171.9383 3.181 1.5764 6.118 2.0549 8.586.4786 2.467.7225 4.494.882 5.892.0307.732.1217 1.46.2721 2.177Z"></path>
  <path fill="#0D3BFB" d="m30.0083 435.171 1.7452 23.907h30.7201l1.7452-23.907H30.0083ZM67.8873 425.741H27.043v9.42h40.8443v-9.42Z"></path>
  <path fill="#E4E9F2" d="M27.0334 458.168v2.609h40.1688v-2.609H27.0334Z"></path>
  <path fill="#0D3BFB" d="m30.8433 465.084-1.886-4.598h36.7814l-2.1956 4.598H30.8433Z"></path>
  <path fill="#F5F5F5" stroke="#fff" stroke-linecap="square" stroke-miterlimit="10" stroke-width=".938302" d="M63.665 442.977c-.0431.08-.0933.155-.1501.225-.122.16-.2721.357-.4504.61-.441.554-1.0415 1.323-1.7922 2.29l-.0844.093-.0751-.103-4.41-6.042h.2533l-4.3349 6.127-.1314.197-.1501-.188c-1.6045-1.877-3.3404-3.96-5.1325-6.099h.2909l-.2815.357-4.5883 5.751-.1595.198-.1408-.207-4.3256-6.136h.2534l-5.339 6.07-.0938.113-.0657-.122-1.6701-2.815-.4317-.751c-.0537-.082-.0977-.17-.1313-.262 0 0 .0657.075.1782.234l.4786.723 1.7452 2.749h-.1595l5.2451-6.155.1314-.15.122.169 4.3631 6.099h-.2909l4.5789-5.762.2815-.356.1501-.188.1502.178 5.1137 6.128h-.2815l4.3725-6.099.122-.179.1313.179 4.2975 6.145h-.1502l1.8766-2.223.4973-.582c.0512-.081.1145-.154.1877-.216Z"></path>
  <path fill="#F5F5F5" d="M64.6033 435.011c0 .103-7.6941.188-17.1897.188s-17.1897-.085-17.1897-.188 7.6941-.197 17.1897-.197 17.1897.084 17.1897.197Z"></path>
</svg>
